# xmcd
#
# Track frame offsets:
#	150
#	12521
#	24600
#	36612
#	55483
#	67987
#	81650
#	97156
#	109120
#	122338
#	133069
#	146314
#
# Disc length: 2175 seconds
#
# Revision: 1
# Processed by: cddbd v1.5.2PL0 Copyright (c) Steve Scherf et al.
# Submitted via: audiograbber 1.83.01
#
DISCID=af087d0c
DTITLE=Tom Astor - Auf Achse
DYEAR=1900
DGENRE=
TTITLE0=Gute Fahrt auf alles Straßen
TTITLE1=Freie Fahrt in ganz Europa
TTITLE2=Und dann kam er vor Gericht
TTITLE3=Du musst wieder hinaus
TTITLE4=Trucker hör'n den Country Club
TTITLE5=Hey,Lieber Schutzengel
TTITLE6=Immer auf Achse
TTITLE7=Einmal über'n Highway donnern
TTITLE8=Jeden Sonntag nimmt er Abschied für ne Woche
TTITLE9=Ich fahr Flüstertruck
TTITLE10=Gut' Nacht, mein Sohn
TTITLE11=Sie ist gerne seine Frau
EXTD=
EXTT0=
EXTT1=
EXTT2=
EXTT3=
EXTT4=
EXTT5=
EXTT6=
EXTT7=
EXTT8=
EXTT9=
EXTT10=
EXTT11=
PLAYORDER=
